<svg xmlns="http://www.w3.org/2000/svg" viewBox="0 0 512 512">
  <defs>
    <linearGradient id="grad" x1="0%" y1="0%" x2="100%" y2="100%">
      <stop offset="0%" style="stop-color:#3b82f6;stop-opacity:1" />
      <stop offset="100%" style="stop-color:#9333ea;stop-opacity:1" />
    </linearGradient>
  </defs>
  <rect width="512" height="512" rx="128" fill="url(#grad)" />
  <path d="M256 128c-50.6 0-93.6 28.5-115.8 71C117.5 242 104 294.6 104 352c0 17.7 14.3 32 32 32s32-14.3 32-32c0-42.3 9.4-81.8 25.8-117.3 12.3-26.6 34.3-46.7 62.2-46.7 27.9 0 49.9 20.1 62.2 46.7 16.4 35.5 25.8 75 25.8 117.3 0 17.7 14.3 32 32 32s32-14.3 32-32c0-57.4-13.5-110-36.2-153C349.6 156.5 306.6 128 256 128z" fill="white" />
  <circle cx="256" cy="256" r="40" fill="white" />
</svg>
